<?xml version="1.0" standalone="no"?><!DOCTYPE svg PUBLIC "-//W3C//DTD SVG 1.1//EN" "http://www.w3.org/Graphics/SVG/1.1/DTD/svg11.dtd"><svg class="icon" width="200px" height="200.00px" viewBox="0 0 1024 1024" version="1.1" xmlns="http://www.w3.org/2000/svg"><path d="M904.73193122 504.2623662c-14.90719121-203.81956121-184.95470863-364.63253538-392.60000917-364.63253541S134.4391041 300.442805 119.53191288 504.2623662h785.20001834zM123.09380814 593.70551344c29.02285014 188.78044796 192.21042114 333.23508843 389.03811391 333.23508842S872.14718581 782.4859614 901.17003596 593.70551344H123.09380814z" fill="#FFFDEB" /><path d="M931.6440286 529.32755494h-839.0242131l1.97883068-26.91209739c7.65147867-105.27379278 54.48380503-203.02802892 131.9220461-275.32131018 77.83400719-72.68904738 179.28206063-112.66142735 285.74315181-112.66142737s207.90914464 39.97237997 285.74315182 112.66142737c77.43824103 72.29328125 124.27056741 170.04751739 131.9220461 275.32131018l1.71498659 26.91209739z m-784.14464195-50.1303775h729.26507078c-26.38440922-178.35860629-181.52473541-314.50215787-364.63253538-314.50215787S173.88379588 300.83857113 147.49938665 479.19717744zM512.13192205 952.00579061c-100.65652117 0-197.88306914-36.14664062-273.87016768-101.97574161-75.19556626-65.03756873-124.93017763-154.74456005-139.9692909-252.49879623L93.8071139 568.64032468h836.51769424l-4.48534956 28.89092809C910.80034531 695.28548891 861.06573394 784.99248028 785.87016767 850.030049c-75.85517649 65.82910099-173.08172448 101.97574162-273.73824562 101.97574161zM153.56780078 618.77070221C192.48480436 782.09019527 341.82056056 901.8754131 512.13192205 901.8754131S831.77903972 782.09019527 870.69604331 618.77070221H153.56780078z" fill="#40BD84" /><path d="M505.66774178 526.55719198h1.18729842v21.76713761h-1.18729842z" fill="#FFFDEB" /><path d="M403.95584425 342.5259377m-31.66129106 0a31.66129107 31.66129107 0 1 0 63.32258214 0 31.66129107 31.66129107 0 1 0-63.32258214 0Z" fill="#40BD84" /><path d="M630.86176352 342.5259377m-31.66129107 0a31.66129107 31.66129107 0 1 0 63.32258215 0 31.66129107 31.66129107 0 1 0-63.32258215 0Z" fill="#40BD84" /><path d="M119.53191288 91.74212808l132.97742246 132.97742245-132.97742246-132.97742245zM101.85435872 109.41968226l116.61908873 116.61908873 16.49025577 16.49025577c9.23454322 9.23454322 26.25248717 10.0260755 35.48703039 0s9.89415345-25.59287694 0-35.4870304l-116.61908875-116.61908873L137.34138911 73.93265185c-9.23454322-9.23454322-26.25248717-10.0260755-35.48703039 0s-9.89415345 25.59287694 0 35.48703041l116.61908873 116.61908873 16.49025577 16.49025577c9.23454322 9.23454322 26.25248717 10.0260755 35.48703039 0s9.89415345-25.59287694 0-35.4870304l-116.61908875-116.61908873L137.34138911 73.93265185c-9.23454322-9.23454322-26.25248717-10.0260755-35.48703039 0s-9.89415345 25.59287694 0 35.48703041z" fill="#40BD84" /><path d="M893.91432343 91.74212808L760.14536869 224.71955053l133.76895474-132.97742245zM876.23676926 74.06457391c-39.18084769 38.91700361-78.22977332 77.83400719-117.41062104 116.75101078-5.40880389 5.40880389-10.94952982 10.81760778-16.35833371 16.22641167-9.36646527 9.23454322-9.89415345 26.25248717 0 35.4870304 10.0260755 9.23454322 25.46095489 9.89415345 35.4870304 0 39.18084769-38.91700361 78.22977332-77.83400719 117.41062103-116.75101079 5.40880389-5.40880389 10.94952982-10.81760778 16.3583337-16.22641167 9.36646527-9.23454322 9.89415345-26.25248717 0-35.48703039-10.15799755-9.23454322-25.59287694-9.89415345-35.48703038 0-39.18084769 38.91700361-78.22977332 77.83400719-117.41062104 116.75101078-5.40880389 5.40880389-10.94952982 10.81760778-16.35833371 16.22641167-9.36646527 9.23454322-9.89415345 26.25248717 0 35.4870304 10.0260755 9.23454322 25.46095489 9.89415345 35.4870304 0 39.18084769-38.91700361 78.22977332-77.83400719 117.41062103-116.75101079 5.40880389-5.40880389 10.94952982-10.81760778 16.3583337-16.22641167 9.36646527-9.23454322 9.89415345-26.25248717 0-35.48703039-10.15799755-9.23454322-25.59287694-9.89415345-35.48703038 0z" fill="#40BD84" /></svg>