<?xml version="1.0" standalone="no"?><!DOCTYPE svg PUBLIC "-//W3C//DTD SVG 1.1//EN" "http://www.w3.org/Graphics/SVG/1.1/DTD/svg11.dtd"><svg class="icon" width="200px" height="200.00px" viewBox="0 0 1024 1024" version="1.1" xmlns="http://www.w3.org/2000/svg"><path d="M515.436 252.467c-5.756 0-11.684-0.341-17.614-1.012a8.019 8.019 0 0 1-5.49-3.122 8.017 8.017 0 0 1-1.531-6.129c4.647-28.807 15.783-48.614 24.973-62.646 11.063-16.33 24.535-30.58 40.112-42.457 15.439-11.813 32.772-20.981 51.516-27.24 24.038-7.63 44.659-9.723 67.303-7.109a8.028 8.028 0 0 1 5.477 3.12 8.088 8.088 0 0 1 1.535 6.113c-4.602 28.851-15.736 48.693-24.933 62.753-11.337 16.601-24.842 30.813-40.229 42.387a181.89 181.89 0 0 1-51.563 27.146c-17.787 5.605-33.485 8.196-49.556 8.196z" fill="#12AF05" /><path d="M597.924 920.324c-23.121 0-42.349-7.164-59.313-13.49-14.387-5.376-26.798-10.016-40.354-10.016-13.423 0-25.795 4.6-40.126 9.93-15.452 5.762-36.315 13.544-59.916 13.544-5.473 0-10.96-0.415-16.326-1.238-27.309-4.216-99.798-24.125-183.235-117.747-55.437-62.246-88.581-155.409-88.654-249.2-0.054-52.729 10.281-103.704 29.882-147.423 39.979-89.147 113.216-138.243 206.216-138.243 13.618 0 27.727 1.09 41.937 3.241 18.523 2.803 35.527 9.724 51.979 16.417 19.897 8.111 38.589 15.734 58.25 15.734 19.629 0 38.325-7.61 58.116-15.668 16.479-6.721 33.524-13.673 52.111-16.483 14.232-2.155 28.368-3.248 42.016-3.248 93.063 0 166.319 49.092 206.302 138.227 56.183 125.326 30.851 295.845-58.938 396.639-32.339 36.259-66.269 65.108-100.871 85.771-36.035 21.499-64.675 29.258-82.354 31.982a110.811 110.811 0 0 1-16.722 1.271z" fill="#FF4055" /></svg>