<?xml version="1.0" standalone="no"?><!DOCTYPE svg PUBLIC "-//W3C//DTD SVG 1.1//EN" "http://www.w3.org/Graphics/SVG/1.1/DTD/svg11.dtd"><svg class="icon" width="200px" height="200.00px" viewBox="0 0 1024 1024" version="1.1" xmlns="http://www.w3.org/2000/svg"><path d="M502.195833 505.975m-447.5125 0a447.5125 447.5125 0 1 0 895.025 0 447.5125 447.5125 0 1 0-895.025 0Z" fill="#1471B3" /><path d="M54.683333 542a447.5125 411.4875 0 1 0 895.025 0 447.5125 411.4875 0 1 0-895.025 0Z" fill="#1778BD" /><path d="M720.933333 163.4625l-71.933333-25.5125 90.945833 78.066667-34.016666-2.008334-6.970834 13.9375c-17.120833-13.583333-37.791667-20.316667-62.004166-19.9625-11.458333 3.304167-19.133333 10.391667-22.916667 21.020834l5.4375 22.441666 69.5625 5.55c5.4375 7.795833 16.416667 7.441667 16.416667 23.504167l25.983333-1.0625 18.070833-5.904167c19.9625 24.566667 34.9625 55.275 43.9375 93.1875l-20.433333 14.291667-5.55 17.479167-0.470833 61.533333s-12.991667 12.991667-15 8.975c-2.008333-4.016667 0.5875-50.433333-6.970834-55.0375-7.558333-4.604167-15.2375-4.958333-23.029166-0.945833-7.795833-15.591667-18.308333-26.691667-32.0125-32.008334a152.391667 152.391667 0 0 0-14.054167-25.041666c-5.3125 1.3-9.091667 3.779167-10.983333 8.033333 2.004167-7.558333 1.891667-15.116667-2.004167-23.029167l-32.008333-6.025-22.445834-1.416666c-8.266667 2.3625-13.933333 8.3875-15.470833 19.4875l-12.516667 10.5125-7.558333 26.458333c-1.891667 6.966667 23.383333 18.070833 33.541667 15.470833 10.158333-2.6 29.529167 25.5125 29.529166 25.5125l-5.079166 19.9625s-7.916667 14.054167-9.920834 11.104167l-19.016666-29.054167c-13.345833-7.679167-27.166667-6.379167-40.983334 0-3.191667 27.754167-4.016667 61.179167 0 75 3.9 13.9375 9.920833 19.958333 15.941667 17.954167 6.025-1.891667 30-19.9625 30-19.9625s22.0875 57.991667 22.0875 61.0625c0 2.954167 32.954167 26.929167 34.9625 26.929167s8.975 3.070833 10.0375-4.0125c0.945833-6.970833-4.016667-19.9625-1.0625-21.970834 2.95-2.004167 6.970833 2.008333 8.029167 12.05 1.420833 14.170833 2.716667 43.466667 0.95 49.9625-4.016667 15-23.979167 36.020833-23.979167 36.020834s-6.020833 21.966667-2.95 23.029166c2.95 0.945833 12.991667 30 17.004167 37.916667 3.9 8.033333 70.9875 210.825 203.975 41.454167 81.258333-103.4625 99.2125-245.9 53.975-363.420834-28.816667-74.879167-97.670833-114.325-145.0375-209.05l-64.008334-32.483333z" fill="#10559A" /><path d="M150 145.983333c0.591667 31.179167 14.291667 61.891667 47.95 92.008334 38.266667-10.158333 74.408333-11.220833 108.541667-2.479167 38.7375-40.983333 80.195833-55.866667 123.541666-53.504167-30.2375 23.975-52.0875 53.7375-63.070833 90.945834 4.4875 13.816667 12.991667 25.983333 31.0625 34.016666 30.2375 4.370833 63.895833 1.416667 96.966667 10.0375l-2.004167 25.0375c-20.433333 37.441667-63.308333 49.133333-98.029167 79.4875 5.195833 21.966667 3.070833 41.220833-2.008333 59.408334-12.758333-10.275-25.983333-15.2375-39.920833-13.9375l-2.479167 1.5375c-42.520833 41.454167-6.6125 76.65 60.470833 109.4875 16.891667 3.066667 34.4875 2.241667 53.033334-4.016667 35.429167-19.4875 123.425-39.566667 139.958333 28.933333-8.154167 10.041667-20.433333 11.458333-34.016667 10.041667-4.604167 3.775-13.4625 5.433333-17.954166 8.975-51.966667 40.625-105.708333 56.3375-168.541667 46.533333 12.045833 14.525 26.575 26.691667 43.4625 36.495834 34.9625 2.479167 54.804167 7.204167 57.045833 14.525h-32.008333c58.820833 25.5125 116.3375 29.291667 171.966667 1.420833 0.354167 5.191667-3.070833 12.279167-8.033334 20.075 18.541667-15.470833 35.433333-35.079167 55.041667-49.016667l3.066667 19.016667c32.008333-6.970833 58.345833-57.170833 77.954166-156.966667l12.9875 35.904167c12.758333-54.333333 12.404167-119.175 6.5-189.45 15.5875 16.416667 30.945833 36.258333 39.45 64.4875 2.595833-99.445833-26.458333-191.454167-97.9125-244.958333 15.7125-3.1875 39.683333 6.379167 85.983334 40.983333-25.75-50.3125-70.5125-97.083333-132.991667-141.020833 85.391667 24.8 162.279167 75.35 221.925 173.025 0.595833-20.55-48.658333-88.345833-94.604167-126.966667l2.604167-13.108333 54.091667 48.070833 2.95-10.983333C923.841667 272.233333 938.608333 343.333333 939.791667 411.833333c-1.775 48.425-8.625 94.133333-25.4 134.883334 30.475-20.554167 44.058333-42.283333 29.770833-111.375l10.8625-43.345834c15.5875 68.029167 16.4125 141.6125-20.316667 229.4875-17.716667 48.066667-61.179167 95.6625-91.766666 143.495834l39.095833-27.041667 42.279167-82.9125c4.016667 25.629167 2.129167 52.908333-13.345834 83.970833-30.945833 47.008333-71.808333 83.741667-122.245833 110.7875-0.470833 12.404167-7.791667 25.75-25.745833 40.158334-60.470833 45.475-143.029167 64.4875-246.020834 59.058333l15.004167 13.933333c-41.104167 0.120833-81.6125-5.191667-121.179167-18.779166l23.741667 15.354166c-231.020833-55.983333-377.120833-203.379167-379.6-404.045833l-21.375 38.029167c-0.825-42.870833 15-79.958333 22.320833-119.7625l3.541667-33.070834-15.354167 36.375c7.204167-50.666667 18.070833-102.633333 57.9875-164.995833C97.083333 249.679167 113.858333 194.641667 150 145.983333z" fill="#E46725" /><path d="M366.9625 272.95c-14.408333 58.7-9.566667 110.195833 27.991667 148.579167 7.558333-5.904167 14.170833-12.758333 23.266666-18.308334 21.495833-12.758333 47.479167-22.558333 74.7625-61.183333l2.004167-25.0375c-15.233333-5.433333-55.0375-7.795833-96.966667-10.0375-17.120833-7.320833-27.633333-18.6625-31.058333-34.0125zM350.545833 468.5375c-86.3375-3.779167-112.4375 51.379167-99.566666 144.445833 2.008333-49.845833 81.141667-110.195833 81.258333-111.379166 0.945833-12.279167 7.325-23.266667 18.308333-33.066667zM578.733333 613.454167c-18.425-9.333333-45-9.683333-82.795833 2.479166-84.095833 20.429167-153.1875 8.858333-210.941667-26.929166 9.566667 30.708333 35.316667 57.6375 94.0125 77.004166 31.416667 5.7875 62.716667 6.5 93.779167-2.125 18.308333-5.4375 35.429167-13.108333 50.545833-24.095833 18.55-14.995833 36.975-26.216667 55.4-26.333333zM197.95 237.9875L109.016667 306.016667c13.108333-33.6625 31.179167-65.7875 65.904166-92.595834l23.029167 24.566667z" fill="#D6572C" /><path d="M367.670833 377.475c-1.3-4.016667 21.6125-12.875 23.975-12.991667 2.483333-0.116667 33.779167-5.55 37.0875-4.016666l10.983334 4.9625c21.85-8.15 32.954167-15.591667 42.520833-26.458334l-0.591667 20.433334c-7.558333 11.808333-53.620833 39.329167-76.179166 52.558333-0.945833 0.470833-1.654167 1.8875-2.483334 2.479167-5.55 3.779167-7.675 6.85-8.029166 7.0875-1.183333 0.825-21.966667-28.583333-27.283334-44.054167z" fill="#F1BA91" /><path d="M460.15 309.916667l17.6 7.558333 4.4875 21.495833-0.591667 20.433334 11.575-18.425c1.891667-7.204167 2.833333-14.529167 0.470834-22.558334-3.191667-3.308333-7.441667-5.195833-12.520834-5.904166l-21.020833-2.6z" fill="#7F3431" /><path d="M239.758333 230.429167c19.608333-1.654167 41.1-1.0625 66.733334 5.079166 37.204167-40.391667 79.0125-55.0375 123.541666-53.504166-26.458333 20.904167-49.016667 47.833333-62.3625 88.7-11.691667 36.729167-9.329167 71.808333 0 105.941666 5.079167 15.470833 14.525 30.470833 27.283334 44.879167 4.4875 21.375 3.425 41.1-2.008334 59.408333-13.583333-11.220833-27.4-15.825-41.220833-13.229166-86.458333-4.841667-114.091667 49.604167-100.745833 145.275-34.608333-87.6375-5.554167-152.95 85.0375-193.933334-32.6-48.308333-19.9625-117.754167-6.025-162.045833-19.8375-14.2875-52.908333-21.608333-90.233334-26.570833zM604.008333 602.941667c-12.404167-45.233333-52.0875-56.925-115.391666-39.329167-30.120833 16.416667-71.575 21.379167-91.533334 6.854167-0.354167-0.2375-0.708333-0.591667-1.0625-0.708334-19.25-9.808333-35.666667-19.841667-48.304166-34.254166-1.416667-1.65-3.308333-2.833333-4.958334-4.25l-6.025 15.233333c-0.945833 35.195833 54.091667 65.3125 124.725 53.029167 63.0625-10.983333 109.004167-7.4375 142.55 3.425z" fill="#FF9D00" /><path d="M724.3625 652.7875c12.870833-31.0625 21.258333-64.370833 27.6375-98.7375l12.9875 35.904167c11.929167-61.0625 13.345833-124.370833 6.5-189.45 16.891667 18.070833 31.533333 38.266667 39.45 64.4875-0.595833-122.95-37.441667-200.545833-97.9125-244.958334 20.316667-0.945833 47.595833 10.0375 85.983333 40.983334-31.3-59.170833-79.604167-102.516667-132.991666-141.020834 70.275 18.070833 143.854167 52.675 221.925 173.025l-29.408334-76.533333-62.591666-63.541667 53.029166 47.125 4.016667-10.0375c110.666667 131.925 96.375 245.783333 61.4125 356.6875l-190.0375 106.066667z" fill="#F5B144" /><path d="M830.420833 570.108333c45.354167-67.9125 57.875-152.004167 39.091667-251.6875 69.920833 127.791667 70.158333 273.304167-27.9875 443.970834l-66.025 39.916666 54.920833-232.2z" fill="#FF9D00" /><path d="M684.558333 705.816667c34.0125-24.566667 54.091667-76.8875 66.966667-151.416667 18.775 27.758333 23.975 69.2125 16.058333 124.016667 29.291667-35.7875 36.6125-106.175 42.9875-177.9875 48.308333 136.65 18.545833 256.291667-62.595833 326.566666 4.491667-3.658333-42.870833-14.525-27.041667-34.0125 35.075-42.991667 45.466667-132.754167 36.254167-134.408333-33.891667 44.05-55.270833 51.729167-72.629167 47.241667z" fill="#FF9D00" /><path d="M590.5375 792.979167c85.9875-21.495833 136.5375-64.370833 164.054167-121.0625-1.65 78.304167-31.0625 137.945833-102.991667 169.0125-43.579167-11.454167-60.466667-28.108333-61.0625-47.95z" fill="#FF9D00" /><path d="M735.933333 865.5l-21.966666 21.491667 23.979166 0.470833c-29.291667 16.0625-60.475 20.908333-92.008333 23.033333 22.320833-18.191667 52.675-32.954167 89.995833-44.995833z" fill="#10559A" /></svg>