<?xml version="1.0" standalone="no"?><!DOCTYPE svg PUBLIC "-//W3C//DTD SVG 1.1//EN" "http://www.w3.org/Graphics/SVG/1.1/DTD/svg11.dtd"><svg class="icon" width="200px" height="200.00px" viewBox="0 0 1024 1024" version="1.1" xmlns="http://www.w3.org/2000/svg"><path d="M175.264 435.2c45.888 0 83.296 37.344 83.296 83.072s-37.408 83.04-83.296 83.04a83.52 83.52 0 0 1-83.328-83.168A83.392 83.392 0 0 1 175.264 435.2zM546.176 189.344c20.576 0 40.672 1.952 60.096 5.6a90.88 90.88 0 0 0-0.544 10.688 116.16 116.16 0 0 0 116 115.744c25.152 0 48.384-7.968 67.392-21.632a320.448 320.448 0 0 1 78.656 185.248l-131.424 4.032c-10.944-94.944-92.192-168.96-190.176-168.96-27.68 0-54.112 5.888-77.888 16.608l-65.696-113.6a320.96 320.96 0 0 1 143.584-33.728z" fill="#FF6309" /><path d="M726.176 752.16c45.888 0 83.2 37.312 83.2 83.072s-37.44 83.072-83.2 83.072a83.36 83.36 0 0 1-83.328-83.072 83.584 83.584 0 0 1 83.328-83.072zM362.08 775.008a324.448 324.448 0 0 1-121.6-161.12 115.584 115.584 0 0 0 50.816-95.68 115.648 115.648 0 0 0-54.656-98.016 324 324 0 0 1 122.304-170.912l69.248 111.552a190.688 190.688 0 0 0-73.568 150.336c0 60.352 28.352 114.304 72.384 149.248l-64.928 114.592z" fill="#FFB515" /><path d="M868 533.76a319.648 319.648 0 0 1-88.096 198.848 116.16 116.16 0 0 0-169.344 93.728 321.088 321.088 0 0 1-205.472-25.984l65.44-113.792a189.76 189.76 0 0 0 75.648 15.52c98.368 0 179.968-74.848 190.304-170.304l131.52 1.984zM721.76 122.752c45.92 0 83.328 37.28 83.328 83.04a83.328 83.328 0 0 1-166.624 0 83.488 83.488 0 0 1 83.296-83.04z" fill="#C90016" /></svg>