<?xml version="1.0" standalone="no"?><!DOCTYPE svg PUBLIC "-//W3C//DTD SVG 1.1//EN" "http://www.w3.org/Graphics/SVG/1.1/DTD/svg11.dtd"><svg class="icon" width="200px" height="200.00px" viewBox="0 0 1024 1024" version="1.1" xmlns="http://www.w3.org/2000/svg"><path d="M0 827.264l93.056-321.728s76.48-32.512 179.584-32.512c103.04 0 206.144 55.296 206.144 55.296l-93.056 324.928s-89.728-52.032-199.488-52.032c-113.088 3.264-186.24 26.048-186.24 26.048" fill="#4383C5" /><path d="M109.696 450.24l93.056-321.664S279.232 96 382.336 96c103.04 0 206.144 55.296 206.144 55.296L495.36 476.224s-89.728-52.032-199.424-52.032c-116.352 0.064-186.24 26.048-186.24 26.048" fill="#DB3431" /><path d="M1024 193.472L931.008 515.2s-76.48 32.512-179.648 32.512c-102.976 0-206.144-55.232-206.144-55.232l93.056-324.928s89.792 52.032 199.552 52.032c116.416 0 186.176-26.112 186.176-26.112" fill="#8FBE48" /><path d="M917.632 573.76l-92.992 321.728s-76.48 32.512-179.648 32.512c-103.04 0-206.144-55.296-206.144-55.296l93.056-324.928s89.792 52.032 199.552 52.032c116.288-3.264 186.176-26.048 186.176-26.048" fill="#F2B624" /></svg>