<?xml version="1.0" standalone="no"?><!DOCTYPE svg PUBLIC "-//W3C//DTD SVG 1.1//EN" "http://www.w3.org/Graphics/SVG/1.1/DTD/svg11.dtd"><svg class="icon" width="200px" height="200.00px" viewBox="0 0 1024 1024" version="1.1" xmlns="http://www.w3.org/2000/svg"><path d="M97.92 163.00032c-40.79616 7.30112-73.89696 46.69952-73.89696 88.19712v157.39392c0 41.4976 33.60256 74.5984 75.09504 73.99936l224.18944-3.39968c41.4976-0.59904 75.09504-34.69824 75.09504-76.19584V184.69888c0-41.4976-33.09568-69.1968-73.89696-61.99808l-226.5856 40.29952z" fill="#F54E20" /><path d="M549.69856 548.3776a73.53344 73.53344 0 0 0-75.09504 73.79968v232.28928c0 41.49248 32.896 81.8944 73.4976 90.19392l378.37824 77.79328c40.6016 8.40192 73.4976-18.49856 73.4976-60.00128v-331.08992c0-41.49248-33.60256-75.68896-75.10016-76.3904l-375.17824-6.59456z" fill="#FFB901" /><path d="M99.01568 541.38368a73.73824 73.73824 0 0 0-75.09504 73.89696v157.30176c0 41.49248 33.1008 80.98816 73.89696 88.19712l226.48832 40.20736c40.80128 7.30112 73.89696-20.5056 73.89696-61.90592v-218.18368c0-41.4976-33.59744-75.60192-75.09504-76.20096l-224.09216-3.31264z" fill="#00A5EF" /><path d="M548.10112 79.30368C507.49952 87.6032 474.60352 128 474.60352 169.4976v232.28928c0 41.4976 33.59744 74.496 75.09504 73.79968l375.28064-6.59968c41.4976-0.70144 75.10016-34.89792 75.10016-76.39552V61.50656c0-41.4976-32.90112-68.29568-73.4976-59.99616l-378.48064 77.79328z" fill="#81B900" /></svg>