<?xml version="1.0" standalone="no"?><!DOCTYPE svg PUBLIC "-//W3C//DTD SVG 1.1//EN" "http://www.w3.org/Graphics/SVG/1.1/DTD/svg11.dtd"><svg class="icon" width="64px" height="64.00px" viewBox="0 0 1024 1024" version="1.1" xmlns="http://www.w3.org/2000/svg"><path d="M578.9 68.3s0.1 0 0 0c0.2-0.3 0.2-0.2 0 0z" fill="#FDD905" /><path d="M709.9 803V394.8c0-92.8-75.2-168-167.9-168H70c-3.6 0-6.6 2.9-6.6 6.5V803c0 3.6 2.9 6.5 6.6 6.5h126c3.6 0 6.6-2.9 6.6-6.6V355.8c0-3.6 2.9-6.6 6.6-6.6h271.1c50.9 0 92.2 41.3 92.2 92.2v361.5c0 3.6 2.9 6.6 6.6 6.6h124.2c3.6 0 6.6-2.9 6.6-6.5m-254.6 0c0 3.6-2.9 6.6-6.6 6.6H322.6c-3.6 0-6.6-2.9-6.6-6.6V460.3c0-3.6 2.9-6.6 6.6-6.6h126.1c3.6 0 6.6 2.9 6.6 6.6V803z m504 0c0 3.6-3 6.6-6.6 6.6h-126c-3.6 0-6.6-2.9-6.6-6.6V233.4c0-3.6 3-6.6 6.6-6.6h126c3.6 0 6.6 2.9 6.6 6.6V803z" fill="#F57923" /></svg>