<?xml version="1.0" standalone="no"?><!DOCTYPE svg PUBLIC "-//W3C//DTD SVG 1.1//EN" "http://www.w3.org/Graphics/SVG/1.1/DTD/svg11.dtd"><svg class="icon" width="200px" height="199.80px" viewBox="0 0 1025 1024" version="1.1" xmlns="http://www.w3.org/2000/svg"><path d="M234.059803 3.40761h561.326429c126.82243 0 229.631958 102.81055 229.631958 229.63298v561.326429c0 126.82243-102.81055 229.632981-229.631958 229.632981H234.059803c-126.823454 0-229.632981-102.811574-229.63298-229.632981V233.04059c0-126.82243 102.809527-229.632981 229.63298-229.63298z" fill="#00A0E9" /><path d="M343.2916 612.029204c-6.990205 0-16.038278 2.811022-27.177989 8.367575-20.905122 11.183713-40.440038 16.053628-58.538231 14.646582-62.717414-2.778276-96.167247-41.840944-100.348476-117.15628 2.77623-76.68759 36.225039-117.155257 100.348476-121.34058 25.087375 1.406023 43.902906 5.589298 56.447616 12.551874 11.139711 2.811022 20.187785 4.184299 27.17799 4.184299 19.50217 0 29.954219-11.833513 31.359218-35.565007-2.808976-34.846646-41.125653-54.393841-114.984824-58.57814-114.297163 9.774621-175.611623 75.315336-183.974082 196.655916 6.958482 122.745578 68.270896 186.909947 183.974082 192.471616 78.039377-1.406023 118.447692-20.922519 121.256668-58.580187-4.181229-23.700795-16.039301-36.252669-35.540448-37.657668z m206.970842-140.16839c-40.441061-12.551874-60.627822-26.478048-60.627822-41.841967 0-20.920472 14.635325-32.066323 43.901882-33.472346 16.72594 1.406023 30.640857 4.90266 41.812292 10.460236 12.543687 2.811022 22.278399 4.184299 29.269627 4.184299 20.906146 0 32.732495-13.239536 35.541471-39.750329-2.808976-30.661324-37.631062-48.116881-104.531752-52.30118-83.624583 6.994298-127.527488 47.431266-131.708717 121.340579 0 48.836265 36.913724 83.681888 110.803595 104.60236 44.587498 12.554944 66.899666 27.197432 66.899666 43.936675-1.404999 30.691-19.533892 46.025243-54.355979 46.025243-13.94664 0-32.077579-3.463891-54.355978-10.464329-12.543687-5.556553-24.400736-9.05319-35.540448-10.459213-22.311145 2.811022-34.168194 15.366989-35.540448 37.657668 1.372254 36.284391 44.589544 55.082526 129.619127 56.488549 86.401836-4.184299 132.395356-43.938722 137.981584-119.247918-0.002047-55.767118-39.724747-94.831832-119.1681-117.158327z m286.417265 0c-40.441061-12.551874-60.629869-26.478048-60.629869-41.841967 0-20.920472 14.636349-32.066323 43.903929-33.472346 16.72594 1.406023 30.638811 4.90266 41.812292 10.460236 12.543687 2.811022 22.277376 4.184299 29.269627 4.184299 20.904099 0 32.730449-13.239536 35.538401-39.750329-2.807952-30.661324-37.630039-48.116881-104.530728-52.30118-83.625606 6.994298-127.526465 47.431266-131.707695 121.340579 0 48.836265 36.911678 83.681888 110.801549 104.60236 44.587498 12.554944 66.899666 27.197432 66.899666 43.936675-1.404999 30.691-19.533892 46.025243-54.355979 46.025243-13.94664 0-32.077579-3.463891-54.355978-10.464329-12.543687-5.556553-24.40176-9.05319-35.539425-10.459213-22.312168 2.811022-34.169217 15.366989-35.54147 37.657668 1.373277 36.284391 44.590568 55.082526 129.619126 56.488549 86.400812-4.184299 132.394333-43.938722 137.981584-119.247918-0.001023-55.767118-39.7227-94.831832-119.16503-117.158327z" fill="#FFFFFF" /></svg>