<?xml version="1.0" standalone="no"?><!DOCTYPE svg PUBLIC "-//W3C//DTD SVG 1.1//EN" "http://www.w3.org/Graphics/SVG/1.1/DTD/svg11.dtd"><svg class="icon" width="64px" height="64.00px" viewBox="0 0 1024 1024" version="1.1" xmlns="http://www.w3.org/2000/svg"><path d="M532.736 59.093333a41.728 41.728 0 0 0-29.098667 11.989334l-0.426666 0.298666-272.512 157.525334 271.829333 271.872v0.170666l326.784 326.784 62.293333-112.213333-224.64-539.306667-104.789333-104.832a41.472 41.472 0 0 0-29.44-12.288z" fill="#00CA94" /><path d="M231.338667 228.266667L73.813333 500.608l-0.298666 0.426667a41.258667 41.258667 0 0 0 0.256 58.496l130.517333 130.602666 510.421333 200.789334 115.370667-64.085334-3.114667-3.114666-0.768 0.085333-320-320.512h-0.426666L231.381333 228.266667z" fill="#1565C0" /><path d="M230.613333 228.394667l278.101334 278.4h0.426666l320.085334 320.426666 121.813333-23.210666 0.213333-360.490667-128.682666-126.08c-28.16-27.605333-71.466667-45.397333-114.986667-51.285333l0.085333-1.365334-477.056-36.394666z" fill="#1565C0" /><path d="M230.997333 228.736l278.229334 278.272v0.384l320.256 320.256-23.296 121.813333h-360.448l-126.037334-128.725333c-27.605333-28.16-45.397333-71.509333-51.2-115.029333l-1.408 0.128L230.997333 228.693333z" fill="#00EE94" /></svg>