<?xml version="1.0" standalone="no"?><!DOCTYPE svg PUBLIC "-//W3C//DTD SVG 1.1//EN" "http://www.w3.org/Graphics/SVG/1.1/DTD/svg11.dtd"><svg class="icon" width="200px" height="200.00px" viewBox="0 0 1024 1024" version="1.1" xmlns="http://www.w3.org/2000/svg"><path d="M882.8 504.9c-16.7 0-30.3 13.6-30.3 30.3v348.7H124.8V186.5h409.3c16.7 0 30.3-13.6 30.3-30.3 0-16.7-13.6-30.3-30.3-30.3H124.8c-33.5 0-60.6 27.1-60.6 60.6v697.4c0 33.5 27.1 60.6 60.6 60.6h727.7c33.5 0 60.6-27.2 60.6-60.6V535.2c0-16.8-13.6-30.3-30.3-30.3z" fill="#5D5D5D" /><path d="M952.8 238.4L802.7 88.2c-11.8-11.8-31.1-11.8-42.9 0L361 486.9l42.9 42.9 377.3-377.3 107.3 107.3-377.3 377.3 42.9 42.9 398.7-398.7c11.9-11.9 11.9-31.1 0-42.9z" fill="#F17250" /><path d="M397.5 482.3l161.6 161.6-42.4 42.4-161.6-161.6 42.4-42.4z" fill="#F17250" /><path d="M347.5 753.8L554.1 680 511 636.8l-172.6 64.8L403.2 529 361 486.9l-74.5 205.9z" fill="#F17250" /><path d="M288.1 689.9c-3.8 6.7-6 14.4-6 22.6 0 25.3 20.5 45.7 45.7 45.7 8.2 0 15.9-2.2 22.6-6l-62.3-62.3z" fill="#F17250" /></svg>