<?xml version="1.0" standalone="no"?><!DOCTYPE svg PUBLIC "-//W3C//DTD SVG 1.1//EN" "http://www.w3.org/Graphics/SVG/1.1/DTD/svg11.dtd"><svg class="icon" width="64px" height="64.00px" viewBox="0 0 1024 1024" version="1.1" xmlns="http://www.w3.org/2000/svg"><path d="M90.774588 679.695059c0 18.913882 16.143059 50.597647 48.00753 69.692235l312.922353 171.369412c13.372235 8.312471 65.716706 8.312471 82.160941 0l280.335059-163.358118c31.864471-19.094588 59.632941-39.574588 59.632941-77.703529V334.667294c0-38.128941-13.251765-76.860235-45.056-95.954823L529.408 71.077647c-31.924706-19.094588-57.825882-12.408471-89.690353 6.625882L137.758118 238.772706C105.833412 257.807059 90.774588 296.538353 90.774588 334.667294v345.027765z" fill="#FFCC33" /><path d="M628.736 607.472941c-13.251765 8.011294-31.804235 12.227765-54.753882 12.227765-26.021647 0-45.056-5.180235-57.404236-14.576941-13.673412-10.782118-22.106353-29.033412-25.6-54.392471H439.717647c2.168471 42.706824 16.745412 73.667765 43.248941 93.364706 21.624471 15.902118 52.103529 23.913412 90.955294 23.913412 40.176941 0 71.559529-8.914824 93.665883-25.840941 22.046118-17.347765 33.129412-41.261176 33.129411-71.258353 0-30.960941-13.733647-54.874353-41.08047-72.282353-12.408471-7.469176-39.755294-18.672941-82.582588-32.768-29.153882-9.878588-47.284706-16.865882-53.910589-20.660706-15.058824-8.432941-22.106353-20.178824-22.106353-34.213647 0-15.962353 6.204235-27.708235 19.456-34.755765 10.601412-6.023529 25.6-8.914824 45.477648-8.914823 22.949647 0 40.658824 4.216471 52.103529 13.613176 11.504941 8.914824 19.877647 23.913412 24.335059 44.574118h51.2c-3.072-36.562824-15.902118-63.789176-37.948236-81.136942-20.781176-16.444235-49.935059-24.395294-87.04-24.395294-33.972706 0-61.801412 7.951059-83.907764 24.395294-23.853176 16.865882-35.297882 40.357647-35.297883 69.872942 0 29.515294 11.866353 52.043294 36.141177 67.523764 9.336471 5.662118 33.611294 15.058824 72.463059 28.190118 34.936471 11.264 55.235765 18.733176 61.44 22.046118 19.395765 10.24 29.515294 24.395294 29.515294 42.164706 0 14.095059-7.047529 24.877176-20.299294 33.310117z" fill="#66460E" /><path d="M839.981176 244.856471L529.408 70.957176a95.292235 95.292235 0 0 0-92.521412 0L137.697882 238.652235a89.148235 89.148235 0 0 0-46.019764 77.281883v355.568941c0 32.225882 18.070588 62.042353 47.104 77.824l107.881411 58.669176c1.204706 0.602353 2.409412 0.662588 3.674353 1.144471 14.336 6.746353 31.382588 10.24 52.645647 10.24 38.912 0 69.029647-13.793882 86.799059-32.828235 15.962353-18.130824 23.913412-45.357176 23.913412-82.522353V343.04h-54.814118v359.062588c0 23.130353-4.216471 39.936-12.649411 50.356706-8.432941 10.420706-22.046118 15.902118-40.357647 15.902118-2.409412 0-17.046588-3.614118-28.55153-8.372706-0.843294-0.421647-1.204706-1.144471-1.927529-1.505882l-107.821177-58.608942a32.527059 32.527059 0 0 1-17.287529-28.491294V315.934118a32.527059 32.527059 0 0 1 16.865882-28.190118L466.221176 119.988706a34.695529 34.695529 0 0 1 33.792 0l299.369412 167.755294c10.360471 5.842824 16.805647 16.624941 16.805647 28.190118v356.592941a32.527059 32.527059 0 0 1-16.444235 28.009412l-289.129412 167.152941a34.695529 34.695529 0 0 1-33.731764 0.481882l-28.190118-15.239529a29.876706 29.876706 0 0 0-39.936 10.842353 27.888941 27.888941 0 0 0 11.143529 38.610823l28.250353 15.179294c28.852706 15.661176 64.150588 15.239529 92.521412-1.204706l289.129412-167.152941a89.148235 89.148235 0 0 0 44.935529-76.619294V315.934118c0-31.864471-6.324706-55.055059-34.755765-71.077647z" fill="#66460E" /></svg>