<?xml version="1.0" standalone="no"?><!DOCTYPE svg PUBLIC "-//W3C//DTD SVG 1.1//EN" "http://www.w3.org/Graphics/SVG/1.1/DTD/svg11.dtd"><svg class="icon" width="200px" height="200.00px" viewBox="0 0 1024 1024" version="1.1" xmlns="http://www.w3.org/2000/svg"><path d="M227.652 329.868c0-4.363-2.235-8.366-5.902-10.524l-97.786-57.716c-1.655-0.995-3.511-1.515-5.387-1.588l-1.012 0c-1.869 0.073-3.718 0.593-5.398 1.588l-97.791 57.716c-3.646 2.156-5.911 6.159-5.911 10.524l0.215 155.39c0 2.164 1.095 4.18 2.947 5.232 1.815 1.118 4.061 1.118 5.868 0l58.114-34.125c3.678-2.241 5.913-6.189 5.913-10.515l0-72.587c0-4.328 2.232-8.342 5.897-10.488l24.747-14.612c1.845-1.104 3.862-1.639 5.922-1.639 2.014 0 4.082 0.529 5.875 1.639l24.734 14.612c3.662 2.146 5.905 6.16 5.905 10.488l0 72.587c0 4.326 2.267 8.307 5.918 10.515l58.101 34.125c1.826 1.118 4.101 1.118 5.908 0 1.799-1.052 2.934-3.069 2.934-5.232L227.652 329.868" fill="#74B957" /><path d="M685.618 410.781c0 1.082-0.568 2.077-1.482 2.622l-33.586 19.842c-0.915 0.54-2.032 0.54-2.945 0l-33.593-19.842c-0.916-0.545-1.475-1.543-1.475-2.622l0-39.778c0-1.082 0.559-2.079 1.471-2.616l33.59-19.895c0.92-0.542 2.037-0.542 2.96 0l33.578 19.895c0.914 0.537 1.482 1.537 1.482 2.616L685.618 410.781M694.694 116.26c-1.834-1.049-4.063-1.025-5.877 0.063-1.799 1.088-2.903 3.074-2.903 5.221L685.914 275.43c0 1.509-0.797 2.916-2.065 3.67-1.278 0.763-2.856 0.763-4.143 0l-24.485-14.465c-3.659-2.169-8.156-2.161-11.802 0l-97.828 57.893c-3.657 2.163-5.911 6.154-5.911 10.486l0 115.813c0 4.328 2.254 8.321 5.907 10.496L643.4 517.26c3.662 2.169 8.166 2.169 11.817 0l97.843-57.937c3.653-2.172 5.904-6.167 5.904-10.496L758.964 160.141c0-4.385-2.312-8.435-6.057-10.574L694.694 116.26z" fill="#74B957" /><path d="M1017.118 369.973c3.648-2.173 5.881-6.159 5.881-10.481l0-28.065c0-4.319-2.232-8.31-5.881-10.476l-97.196-57.871c-3.652-2.18-8.175-2.18-11.837-0.016l-97.794 57.892c-3.659 2.167-5.902 6.16-5.902 10.493l0 115.775c0 4.355 2.28 8.372 5.962 10.525l97.184 56.787c3.581 2.104 7.984 2.117 11.577 0.067l58.786-33.504c1.873-1.066 3.031-3.072 3.039-5.252 0.014-2.185-1.115-4.201-2.963-5.295l-98.407-57.923c-1.847-1.076-2.977-3.085-2.977-5.254l0-36.287c0-2.152 1.124-4.164 2.958-5.244l30.632-18.111c1.82-1.077 4.067-1.077 5.894 0l30.646 18.111c1.827 1.08 2.957 3.089 2.957 5.244l0 28.548c0 2.169 1.13 4.167 2.961 5.259 1.831 1.073 4.085 1.066 5.913-0.019L1017.118 369.973" fill="#74B957" /><path d="M377.973 262.453c3.651-2.158 8.158-2.158 11.81 0l97.815 57.882c3.66 2.165 5.911 6.162 5.911 10.496l0 115.856c0 4.328-2.251 8.32-5.902 10.497l-97.818 57.929c-3.657 2.166-8.161 2.166-11.815 0l-97.792-57.929c-3.654-2.174-5.905-6.169-5.905-10.497L274.277 330.824c0-4.328 2.251-8.323 5.91-10.489L377.973 262.453" fill="#74B957" /><path d="M913.694 418.7 888.427 403.741 888.427 373.823 913.694 358.865 938.961 373.823 938.961 403.741Z" fill="#74B957" /></svg>