<?xml version="1.0" standalone="no"?><!DOCTYPE svg PUBLIC "-//W3C//DTD SVG 1.1//EN" "http://www.w3.org/Graphics/SVG/1.1/DTD/svg11.dtd"><svg class="icon" width="64px" height="64.00px" viewBox="0 0 1024 1024" version="1.1" xmlns="http://www.w3.org/2000/svg"><path d="M234.196 565h535.187v135H234.196z" fill="#BF6F59" /><path d="M501.787 565h267.596v135H501.787z" fill="#AD5E48" /><path d="M387.106 646.002H272.422c-10.565 0-19.115-6.042-19.115-13.502 0-7.461 8.55-13.502 19.115-13.502h114.685c10.562 0 19.115 6.041 19.115 13.502 0 7.46-8.554 13.502-19.116 13.502M731.156 646.002H616.472c-10.564 0-19.115-6.042-19.115-13.502 0-7.461 8.551-13.502 19.115-13.502h114.685c10.564 0 19.111 6.041 19.111 13.502 0 7.46-8.547 13.502-19.112 13.502" fill="#814647" /><path d="M859.801 405.251l-77.877-30.584a9.158 9.158 0 0 0-8.792 1.161l0.016-0.002-67.287 49.746a8.568 8.568 0 0 0-3.414 8.021l10.566 80.046a8.585 8.585 0 0 0 5.38 6.862l77.909 30.611a9.16 9.16 0 0 0 8.772-1.16l31.035-22.957a4.478 4.478 0 0 0-1.061-7.775l-78.09-30.135a3.916 3.916 0 0 1-2.438-3.112l-4.817-36.48a3.76 3.76 0 0 1 1.495-3.52l30.646-22.652-0.016 0.003a4.317 4.317 0 0 1 3.994-0.528l35.48 13.936a3.767 3.767 0 0 1 2.354 3.017l3.929 29.763a3.592 3.592 0 0 0 5.775 2.368l32.754-25.29a7.217 7.217 0 0 0 2.74-6.638l-3.674-27.812a8.587 8.587 0 0 0-5.379-6.889z m-547.355 72.252l-77.879-30.584a9.155 9.155 0 0 0-8.787 1.16l0.016-0.001-67.289 49.744a8.571 8.571 0 0 0-3.412 8.021l14.579 110.429a3.599 3.599 0 0 0 2.199 2.863 3.612 3.612 0 0 0 3.577-0.49l32.753-25.293a7.182 7.182 0 0 0 2.721-6.637l-8.579-64.984a3.776 3.776 0 0 1 1.493-3.523l30.65-22.65a4.34 4.34 0 0 1 3.994-0.528l35.48 13.939a3.76 3.76 0 0 1 2.354 3.012l8.58 64.991a7.141 7.141 0 0 0 4.362 5.697l38.196 15.926a3.673 3.673 0 0 0 3.581-0.459 3.65 3.65 0 0 0 1.367-3.342l-14.575-110.416a8.601 8.601 0 0 0-5.381-6.875z m0 0" fill="#36474F" /><path d="M234.195 700c-32.684 0-58.616-29.018-58.616-67.5 0-38.485 25.932-67.5 58.616-67.5 32.685 0 57.339 29.015 57.339 67.5 0 38.482-24.654 67.5-57.339 67.5" fill="#FBE3E2" /><path d="M769.383 700c-32.682 0-57.342-29.018-57.342-67.5 0-38.485 24.66-67.5 57.342-67.5S828 594.015 828 632.5c0 38.482-25.936 67.5-58.617 67.5" fill="#F8CCD1" /><path d="M232.68 676.588c-5.18 0-10.191-1.408-14.086-3.955C205.489 665.205 198 649.975 198 633.506c0-23.747 15.562-43.079 34.68-43.079 19.118 0 34.677 19.332 34.677 43.079-0.001 23.752-15.559 43.082-34.677 43.082M770.019 673.163c-4.906 0-9.656-1.334-13.343-3.747-12.412-7.035-19.505-21.463-19.505-37.063 0-22.494 14.738-40.807 32.848-40.807s32.852 18.313 32.852 40.807c-0.001 22.5-14.742 40.81-32.852 40.81" fill="#F18F67" /><path d="M403.404 425.326l-67.288 49.748a8.39 8.39 0 0 0-3.432 7.853l10.609 80.373c0.396 3.004 2.435 5.549 5.354 6.701l77.913 30.611c2.902 1.135 6.262 0.689 8.773-1.158l67.284-49.779a8.456 8.456 0 0 0 3.404-7.854l-10.61-80.375a8.417 8.417 0 0 0-5.354-6.692l-77.879-30.585a9.149 9.149 0 0 0-8.786 1.16m383.051 23.049l-11.217 8.286a1.37 1.37 0 0 0-0.567 1.307l1.769 13.403c0.067 0.505 0.411 0.924 0.887 1.114l12.985 5.107c0.492 0.19 1.04 0.116 1.468-0.193l11.213-8.301c0.413-0.302 0.628-0.801 0.567-1.307l-1.768-13.402a1.414 1.414 0 0 0-0.901-1.113l-12.988-5.09a1.352 1.352 0 0 0-0.748-0.098c-0.251 0.03-0.496 0.122-0.7 0.287" fill="#39893C" /><path d="M666.535 303.927l-37.947-15.055a3.618 3.618 0 0 0-3.559 0.512 3.633 3.633 0 0 0-1.368 3.329l15.712 119.119-34.973-13.731a9.145 9.145 0 0 0-8.785 1.159l0.01-0.001-67.285 49.746a8.389 8.389 0 0 0-3.433 7.843l10.609 80.369c0.396 3.006 2.429 5.549 5.353 6.703l77.915 30.605a9.215 9.215 0 0 0 8.77-1.158l67.286-49.771a8.423 8.423 0 0 0 3.4-7.857l-27.193-206.027a7.264 7.264 0 0 0-4.512-5.785z m-17.11 199.336l-30.576 22.628a4.184 4.184 0 0 1-3.981 0.521L579.451 512.5a3.816 3.816 0 0 1-2.447-3.048l-4.826-36.54c-0.178-1.359 0.412-2.714 1.563-3.578l30.594-22.607-0.016 0.001a4.32 4.32 0 0 1 3.993-0.526l35.397 13.896a3.87 3.87 0 0 1 2.438 3.065l4.823 36.543a3.824 3.824 0 0 1-1.545 3.557z m0 0" fill="#36474F" /><path d="M403.404 425.326l-60.111 137.973c0.396 3.004 2.435 5.549 5.354 6.701l77.913 30.611c2.902 1.135 6.262 0.689 8.773-1.158l60.078-138.008a8.417 8.417 0 0 0-5.354-6.692l-77.879-30.585a9.149 9.149 0 0 0-8.786 1.16" fill="#2F7939" /><path d="M403.404 425.326l-67.288 49.748a8.39 8.39 0 0 0-3.432 7.853l93.858 117.685c2.906 1.135 6.265 0.693 8.772-1.158l67.286-49.777a8.43 8.43 0 0 0 3.421-7.855l-93.844-117.653a9.149 9.149 0 0 0-8.786 1.16" fill="#4DA74F" /></svg>