<?xml version="1.0" standalone="no"?><!DOCTYPE svg PUBLIC "-//W3C//DTD SVG 1.1//EN" "http://www.w3.org/Graphics/SVG/1.1/DTD/svg11.dtd"><svg class="icon" width="200px" height="200.00px" viewBox="0 0 1024 1024" version="1.1" xmlns="http://www.w3.org/2000/svg"><path d="M492.4 760c-41.2 0-74.8-33.5-74.8-74.8 0-41.2 33.5-74.8 74.8-74.8 1.5 0 2.9 0.1 4.3 0.1l174.7-132.9 28.5 28.5-132.8 174.8c0.1 1.4 0.1 2.8 0.1 4.3 0 41.2-33.5 74.8-74.8 74.8z m0-129.6c-30.2 0-54.8 24.6-54.8 54.8 0 30.2 24.6 54.8 54.8 54.8 30.2 0 54.8-24.6 54.8-54.8 0-2-0.2-4.1-0.4-6.4l-0.3-3.8 2.3-3.1L673.5 508l-3.8-3.8-166.9 127-3.8-0.3c-2.4-0.3-4.6-0.5-6.6-0.5z" fill="#F2B959" /><path d="M927.6 835.3l-18.1-8.6c28.2-59.4 42.4-122.8 42.4-188.6 0-242.6-197.4-440-440-440s-440 197.4-440 440c0 65.8 14.3 129.2 42.4 188.6l-18.1 8.6C66.9 773.2 52 706.9 52 638.2c0-62.1 12.2-122.3 36.2-179 23.2-54.8 56.3-104 98.6-146.2s91.4-75.4 146.2-98.6c56.7-24 117-36.2 179-36.2 62.1 0 122.3 12.2 179 36.2 54.8 23.2 104 56.3 146.2 98.6s75.4 91.4 98.6 146.2c24 56.7 36.2 117 36.2 179 0 68.7-14.9 135-44.4 197.1z" fill="#076BF2" /><path d="M62 627.5h70v20H62zM127.367 403.642l60.62 35-10 17.32-60.62-35zM295.93 242.419l35 60.62-17.32 10-35-60.62zM522.52 187.02v70h-20v-70zM746.38 252.395l-35 60.62-17.32-10 35-60.62zM907.68 420.898l-60.62 35-10-17.32 60.62-35zM963 647.54h-70v-20h70z" fill="#076BF2" /></svg>