<?xml version="1.0" standalone="no"?><!DOCTYPE svg PUBLIC "-//W3C//DTD SVG 1.1//EN" "http://www.w3.org/Graphics/SVG/1.1/DTD/svg11.dtd"><svg class="icon" width="200px" height="200.00px" viewBox="0 0 1024 1024" version="1.1" xmlns="http://www.w3.org/2000/svg"><path d="M867.2 966.4H156.8C70.4 966.4 0 896 0 809.6V342.4c0-86.4 70.4-156.8 156.8-156.8h134.4l16-59.2c3.2-38.4 35.2-68.8 73.6-68.8H640c38.4 0 70.4 30.4 73.6 68.8l16 59.2h137.6c86.4 0 156.8 70.4 156.8 156.8v467.2c0 86.4-70.4 156.8-156.8 156.8z m-710.4-704c-43.2 0-80 35.2-80 80v467.2c0 43.2 35.2 80 80 80h710.4c43.2 0 80-35.2 80-80V342.4c0-43.2-35.2-80-80-80H672l-35.2-128H384v3.2l-35.2 123.2h-192z" fill="#1EA092" /><path d="M947.2 918.4H73.6c-17.6 0-32-14.4-32-32V272c0-17.6 14.4-32 32-32h873.6c17.6 0 32 14.4 32 32v612.8c0 19.2-14.4 33.6-32 33.6z" fill="#1EA092" /><path d="M512 756.8c-99.2 0-180.8-81.6-180.8-180.8 0-99.2 81.6-180.8 180.8-180.8 99.2 0 180.8 81.6 180.8 180.8 0 99.2-81.6 180.8-180.8 180.8z m0-284.8c-57.6 0-104 46.4-104 104s46.4 104 104 104 104-46.4 104-104-46.4-104-104-104zM793.6 451.2c-27.2 0-49.6-22.4-49.6-49.6s22.4-49.6 49.6-49.6c27.2 0 49.6 22.4 49.6 49.6s-22.4 49.6-49.6 49.6z" fill="#FFFFFF" /><path d="M673.6 307.2H356.8c-17.6 0-32-14.4-32-32V136c0-17.6 14.4-32 32-32h316.8c17.6 0 32 14.4 32 32v139.2c0 17.6-14.4 32-32 32z" fill="#1EA092" /></svg>