<?xml version="1.0" standalone="no"?><!DOCTYPE svg PUBLIC "-//W3C//DTD SVG 1.1//EN" "http://www.w3.org/Graphics/SVG/1.1/DTD/svg11.dtd"><svg class="icon" width="200px" height="200.00px" viewBox="0 0 1024 1024" version="1.1" xmlns="http://www.w3.org/2000/svg"><path d="M615.781156 181.411723c18.418488 67.535139 73.673953 280.373619-164.232458 344.837816 164.232458-91.581812 181.848675-251.653507 95.16236-360.697015-204.139354-53.721529-434.371992 12.791327-406.760121 612.930737 6.387477 14.074553 22.413476 17.850553 44.016493 16.884552 12.279674-135.070278 111.679545-293.539476 164.744111-242.513336 39.906895 38.372959 31.115672 182.524057 29.16218 301.783231 28.384467 15.081487 89.782839 21.831214 115.628484 0.7552C480.710878 655.689586 681.781336 657.224546 654.766053 855.374488c27.78481 19.046798 92.935646 18.364253 117.668956-0.055259C990.803435 477.643518 824.525388 267.36535 615.781156 181.411723zM282.711362 368.667547c-12.715603 0-23.023366-10.307763-23.023366-23.023366 0-12.715603 10.307763-23.023366 23.023366-23.023366 12.71458 0 23.023366 10.307763 23.023366 23.023366C305.734728 358.359784 295.426965 368.667547 282.711362 368.667547z" fill="#bce368" /></svg>