<?xml version="1.0" standalone="no"?><!DOCTYPE svg PUBLIC "-//W3C//DTD SVG 1.1//EN" "http://www.w3.org/Graphics/SVG/1.1/DTD/svg11.dtd"><svg class="icon" width="200px" height="200.00px" viewBox="0 0 1024 1024" version="1.1" xmlns="http://www.w3.org/2000/svg"><path d="M871.589744 443.487179v-66.461538c0-47.179487-32.820513-85.333333-73.435898-85.333333H228.307692c-40.615385 0-73.435897 38.153846-73.435897 85.333333v66.461538" fill="#247BC4" /><path d="M883.076923 454.974359h-23.384615v-77.948718c0-40.615385-27.897436-73.846154-61.948718-73.846154H228.307692c-34.051282 0-61.948718 33.230769-61.948718 73.846154v77.948718H143.384615v-77.948718c0-53.333333 38.153846-96.820513 84.923077-96.820513h569.846154c46.769231 0 84.923077 43.487179 84.923077 96.820513v77.948718zM860.102564 475.076923h23.384615V654.769231h-23.384615zM798.153846 847.179487H228.307692C181.538462 847.179487 143.384615 803.692308 143.384615 750.358974l0.820513-274.051282h23.384616l-0.820513 274.051282c0 40.615385 27.897436 73.846154 61.948718 73.846154h569.846154c34.051282 0 61.948718-33.230769 61.948718-73.846154v-32.820512h23.384615v32.820512c-0.820513 53.333333-38.974359 96.820513-85.74359 96.820513z" fill="#247BC4" /><path d="M426.461538 288.820513v-29.128205c0-14.769231 7.794872-26.666667 17.23077-26.666667h139.487179c9.435897 0 17.230769 11.897436 17.230769 26.666667v29.128205" fill="#247BC4" /><path d="M600.410256 297.435897c-4.923077 0-8.615385-4.102564-8.615384-8.615384v-29.128205c0-10.666667-4.923077-18.051282-8.615385-18.051282h-139.487179c-3.282051 0-8.615385 6.974359-8.615385 18.051282v29.128205c0 4.923077-4.102564 8.615385-8.615385 8.615384s-8.615385-4.102564-8.615384-8.615384v-29.128205c0-19.692308 11.487179-35.282051 25.846154-35.282052h139.487179c14.358974 0 25.846154 15.589744 25.846154 35.282052v29.128205c0 4.923077-3.692308 8.615385-8.615385 8.615384zM583.179487 530.461538h-139.487179c-11.897436 0-21.74359-11.076923-21.74359-24.615384v-22.153846c0-2.461538 2.051282-4.512821 4.51282-4.512821s4.512821 2.051282 4.512821 4.512821v22.153846c0 8.615385 5.74359 15.589744 12.717949 15.589743h139.487179c6.974359 0 12.717949-7.384615 12.717949-15.589743v-22.153846c0-2.461538 2.051282-4.512821 4.51282-4.512821s4.512821 2.051282 4.512821 4.512821v22.153846c0 13.538462-9.846154 24.615385-21.74359 24.615384zM146.25641 446.358974h733.948718v8.615385H146.25641z" fill="#247BC4" /><path d="M595.897436 474.666667h286.769231v8.615384h-286.769231zM146.25641 475.897436H430.564103v8.615385H146.25641zM160.615385 427.076923H869.538462v21.74359H160.615385zM787.076923 834.461538H229.948718c-41.025641 0-74.25641-33.230769-74.25641-74.25641v-234.666666h705.230769v234.666666c0 41.025641-32.820513 74.25641-73.846154 74.25641z" fill="#247BC4" /><path d="M598.358974 478.769231H869.538462v56.615384h-271.179488z" fill="#247BC4" /><path d="M592.615385 521.435897h11.076923v6.564103h-11.076923z" fill="#247BC4" /><path d="M154.871795 480.410256h271.179487v58.666667H154.871795z" fill="#247BC4" /><path d="M421.128205 518.564103h12.717949v21.743589h-12.717949z" fill="#247BC4" /></svg>